<?xml version="1.0" encoding="utf-8"?>
<!-- Generator: Adobe Illustrator 24.0.2, SVG Export Plug-In . SVG Version: 6.00 Build 0)  -->
<svg version="1.1" id="Panel" xmlns="http://www.w3.org/2000/svg" xmlns:xlink="http://www.w3.org/1999/xlink" x="0px" y="0px"
	 viewBox="0 0 485.8 1004.84" style="enable-background:new 0 0 485.8 1004.84;" xml:space="preserve">
<style type="text/css">
	.st0{fill:#424343;}
	.st1{fill:#ABABAB;}
	.st2{fill:#535353;}
	.st3{fill:#747475;}
	.st4{fill:#CDCDDA;}
	.st5{fill:#8C8C8D;}
	.st6{fill:#ACACAB;}
	.st7{fill:#DDDDDD;}
	.st8{fill:url(#SVGID_1_);}
	.st9{fill:#A6A6A6;}
	.st10{fill:#F8F8F8;}
	.st11{fill:#EDEDED;}
	.st12{fill:#F1F1F1;}
	.st13{fill:url(#SVGID_2_);}
	.st14{display:none;fill:#D1D1D2;}
	.st15{fill:#84877E;}
	.st16{fill:#16124F;}
	.st17{fill:#84899D;}
	.st18{fill:url(#SVGID_3_);}
	.st19{fill:url(#SVGID_4_);}
	.st20{fill:url(#SVGID_5_);}
	.st21{fill:url(#SVGID_6_);}
	.st22{fill:#4C4B4A;}
	.st23{fill:#706F6E;}
	.st24{fill:#626573;}
	.st25{fill:#202123;}
	.st26{fill:#787D8D;}
	.st27{fill:#9E9FAF;}
	.st28{fill:#0A0A78;}
</style>
<g>
	<path class="st0" d="M406.19,688.1v104.19h-14.91V688.04c0-19.11-15.49-34.6-34.6-34.6h-3.74c-6.61,0-11.98,5.36-11.98,11.98v18.84
		c0,47.23-38.28,85.51-85.51,85.51h-5.2c-27.77,0-50.29-22.51-50.29-50.29V575.41h14.93v144.22c0,19.36,15.69,35.05,35.05,35.05h6.1
		c38.65,0,69.98-31.33,69.98-69.98v-19.15c0-14.93,12.1-27.03,27.03-27.03h3.53C383.99,638.52,406.19,660.72,406.19,688.1z"/>
	<g>
		<g>
			<path class="st1" d="M285.92,564.63h-41.4v5.32c0,3.02,2.45,5.47,5.47,5.47h30.46c3.02,0,5.47-2.45,5.47-5.47V564.63z"/>
			<path class="st2" d="M285.92,564.63v6.65c0,2.28-1.85,4.14-4.14,4.14h-33.13c-2.28,0-4.14-1.85-4.14-4.14v-6.65H285.92
				 M286.67,563.87h-0.76h-41.4h-0.76v0.76v6.65c0,2.7,2.19,4.89,4.89,4.89h33.13c2.7,0,4.89-2.19,4.89-4.89v-6.65V563.87
				L286.67,563.87z"/>
		</g>
		<rect x="248.67" y="533.04" class="st3" width="33.08" height="10.6"/>
		<g>
			<path class="st4" d="M285.01,541.3h-39.58c-0.54,0-0.99-0.44-0.99-0.99s0.44-0.99,0.99-0.99h39.58c0.54,0,0.99,0.44,0.99,0.99
				S285.55,541.3,285.01,541.3z"/>
			<path class="st4" d="M285.01,537.99h-39.58c-0.54,0-0.99-0.44-0.99-0.99c0-0.54,0.44-0.99,0.99-0.99h39.58
				c0.54,0,0.99,0.44,0.99,0.99C285.99,537.55,285.55,537.99,285.01,537.99z"/>
		</g>
		<g>
			<g>
				<rect x="240.55" y="543.86" class="st5" width="49.33" height="20.77"/>
				<path class="st2" d="M289.88,543.86v20.77h-49.33v-20.77H289.88 M290.64,543.1h-0.76h-49.33h-0.76v0.76v20.77v0.76h0.76h49.33
					h0.76v-0.76v-20.77V543.1L290.64,543.1z"/>
			</g>
			<g>
				<rect x="252.44" y="543.86" class="st6" width="25.54" height="20.77"/>
				<path class="st2" d="M277.99,543.86v20.77h-25.54v-20.77H277.99 M278.74,543.1h-0.76h-25.54h-0.76v0.76v20.77v0.76h0.76h25.54
					h0.76v-0.76v-20.77V543.1L278.74,543.1z"/>
			</g>
		</g>
		<g>
			<g>
				<rect x="240.55" y="519.39" class="st1" width="49.33" height="13.64"/>
				<path class="st2" d="M289.88,519.39v13.64h-49.33v-13.64H289.88 M290.64,518.64h-0.76h-49.33h-0.76v0.76v13.64v0.76h0.76h49.33
					h0.76v-0.76v-13.64V518.64L290.64,518.64z"/>
			</g>
			<g>
				<rect x="252.44" y="519.39" class="st7" width="25.54" height="13.64"/>
				<path class="st2" d="M277.99,519.39v13.64h-25.54v-13.64H277.99 M278.74,518.64h-0.76h-25.54h-0.76v0.76v13.64v0.76h0.76h25.54
					h0.76v-0.76v-13.64V518.64L278.74,518.64z"/>
			</g>
		</g>
	</g>
	<g>
		<g>
			<path class="st1" d="M228.72,564.63h-41.4v5.32c0,3.02,2.45,5.47,5.47,5.47h30.46c3.02,0,5.47-2.45,5.47-5.47V564.63z"/>
			<path class="st2" d="M228.72,564.63v6.65c0,2.28-1.85,4.14-4.14,4.14h-33.13c-2.28,0-4.14-1.85-4.14-4.14v-6.65H228.72
				 M229.48,563.87h-0.76h-41.4h-0.76v0.76v6.65c0,2.7,2.19,4.89,4.89,4.89h33.13c2.7,0,4.89-2.19,4.89-4.89v-6.65V563.87
				L229.48,563.87z"/>
		</g>
		<rect x="191.48" y="533.04" class="st3" width="33.08" height="10.6"/>
		<g>
			<path class="st4" d="M227.81,541.3h-39.58c-0.54,0-0.99-0.44-0.99-0.99s0.44-0.99,0.99-0.99h39.58c0.54,0,0.99,0.44,0.99,0.99
				S228.35,541.3,227.81,541.3z"/>
			<path class="st4" d="M227.81,537.99h-39.58c-0.54,0-0.99-0.44-0.99-0.99c0-0.54,0.44-0.99,0.99-0.99h39.58
				c0.54,0,0.99,0.44,0.99,0.99C228.8,537.55,228.35,537.99,227.81,537.99z"/>
		</g>
		<g>
			<g>
				<rect x="183.35" y="543.86" class="st5" width="49.33" height="20.77"/>
				<path class="st2" d="M232.68,543.86v20.77h-49.33v-20.77H232.68 M233.44,543.1h-0.76h-49.33h-0.76v0.76v20.77v0.76h0.76h49.33
					h0.76v-0.76v-20.77V543.1L233.44,543.1z"/>
			</g>
			<g>
				<rect x="195.25" y="543.86" class="st6" width="25.54" height="20.77"/>
				<path class="st2" d="M220.79,543.86v20.77h-25.54v-20.77H220.79 M221.55,543.1h-0.76h-25.54h-0.76v0.76v20.77v0.76h0.76h25.54
					h0.76v-0.76v-20.77V543.1L221.55,543.1z"/>
			</g>
		</g>
		<g>
			<g>
				<rect x="183.35" y="519.39" class="st1" width="49.33" height="13.64"/>
				<path class="st2" d="M232.68,519.39v13.64h-49.33v-13.64H232.68 M233.44,518.64h-0.76h-49.33h-0.76v0.76v13.64v0.76h0.76h49.33
					h0.76v-0.76v-13.64V518.64L233.44,518.64z"/>
			</g>
			<g>
				<rect x="195.25" y="519.39" class="st7" width="25.54" height="13.64"/>
				<path class="st2" d="M220.79,519.39v13.64h-25.54v-13.64H220.79 M221.55,518.64h-0.76h-25.54h-0.76v0.76v13.64v0.76h0.76h25.54
					h0.76v-0.76v-13.64V518.64L221.55,518.64z"/>
			</g>
		</g>
	</g>
	<g>
		<g>
			<g>
				<linearGradient id="SVGID_1_" gradientUnits="userSpaceOnUse" x1="162.4215" y1="415.6833" x2="309.5765" y2="415.6833">
					<stop  offset="0" style="stop-color:#FBFBFB"/>
					<stop  offset="0.5" style="stop-color:#EDEDED"/>
					<stop  offset="1" style="stop-color:#D1D1D2"/>
				</linearGradient>
				<rect x="162.42" y="328.1" class="st8" width="147.15" height="175.17"/>
				<path class="st9" d="M309.58,328.1v175.17H162.42V328.1H309.58 M310.33,327.34h-0.76H162.42h-0.76v0.76v175.17v0.76h0.76h147.15
					h0.76v-0.76V328.1V327.34L310.33,327.34z"/>
			</g>
		</g>
		<g>
			<path class="st10" d="M303.86,515.35v0.02c0,2.21-1.81,4.02-4.02,4.02H172.16c-2.23,0-4.02-1.81-4.02-4.02v-0.02
				c0-2.23,1.79-4.02,4.02-4.02h127.68C302.05,511.33,303.86,513.12,303.86,515.35z"/>
			<path class="st9" d="M299.84,511.33c2.21,0,4.02,1.79,4.02,4.02v0.02c0,2.21-1.81,4.02-4.02,4.02H172.16
				c-2.23,0-4.02-1.81-4.02-4.02v-0.02c0-2.23,1.79-4.02,4.02-4.02H299.84 M299.84,510.57H172.16c-2.63,0-4.78,2.14-4.78,4.78
				c0,2.65,2.14,4.8,4.78,4.8h127.68c2.63,0,4.78-2.14,4.78-4.78C304.62,512.72,302.48,510.57,299.84,510.57L299.84,510.57z"/>
		</g>
		<g>
			<path class="st11" d="M309.58,507.29v0.02c0,2.23-1.81,4.02-4.02,4.02H166.44c-2.23,0-4.02-1.79-4.02-4.02v-0.02
				c0-2.23,1.79-4.02,4.02-4.02h139.12C307.77,503.27,309.58,505.06,309.58,507.29z"/>
			<path class="st9" d="M305.56,503.27c2.21,0,4.02,1.79,4.02,4.02v0.02c0,2.23-1.81,4.02-4.02,4.02H166.44
				c-2.23,0-4.02-1.79-4.02-4.02v-0.02c0-2.23,1.79-4.02,4.02-4.02H305.56 M305.56,502.51H166.44c-2.63,0-4.78,2.14-4.78,4.78
				c0,2.65,2.14,4.8,4.78,4.8h139.12c2.63,0,4.78-2.14,4.78-4.78C310.34,504.65,308.19,502.51,305.56,502.51L305.56,502.51z"/>
		</g>
		<g>
			<path class="st12" d="M295.54,308.79v0.02c0,2.46-2.01,4.48-4.48,4.48H180.93c-2.46,0-4.48-2.01-4.48-4.48v-0.02
				c0-2.48,2.01-4.48,4.48-4.48h110.13C293.53,304.31,295.54,306.3,295.54,308.79z"/>
			<path class="st9" d="M291.07,304.31c2.46,0,4.48,1.99,4.48,4.48v0.02c0,2.46-2.01,4.48-4.48,4.48H180.93
				c-2.46,0-4.48-2.01-4.48-4.48v-0.02c0-2.48,2.01-4.48,4.48-4.48H291.07 M291.07,303.56H180.93c-2.88,0-5.23,2.35-5.23,5.23
				c0,2.9,2.35,5.25,5.23,5.25h110.13c2.88,0,5.23-2.35,5.23-5.23C296.3,305.9,293.95,303.56,291.07,303.56L291.07,303.56z"/>
		</g>
		<g>
			<path class="st10" d="M302.56,317.19c0,1.08-0.43,2.05-1.14,2.74c-0.71,0.71-1.7,1.14-2.76,1.14H173.34
				c-2.15,0-3.9-1.74-3.9-3.88c0-1.08,0.43-2.07,1.14-2.76c0.71-0.71,1.7-1.14,2.76-1.14h125.31
				C300.81,313.28,302.56,315.02,302.56,317.19z"/>
			<path class="st9" d="M298.66,313.28c2.15,0,3.9,1.74,3.9,3.9c0,1.08-0.43,2.05-1.14,2.74c-0.71,0.71-1.7,1.14-2.76,1.14H173.34
				c-2.15,0-3.9-1.74-3.9-3.88c0-1.08,0.43-2.07,1.14-2.76c0.71-0.71,1.7-1.14,2.76-1.14H298.66 M298.66,312.53H173.34
				c-1.23,0-2.43,0.5-3.29,1.36c-0.86,0.84-1.36,2.04-1.36,3.29c0,2.56,2.09,4.64,4.66,4.64h125.31c1.23,0,2.43-0.5,3.29-1.37
				c0.88-0.85,1.36-2.02,1.36-3.27C303.32,314.62,301.23,312.53,298.66,312.53L298.66,312.53z"/>
		</g>
		<g>
			<path class="st11" d="M309.58,324.58c0,1.95-1.58,3.51-3.51,3.51H165.93c-1.93,0-3.51-1.56-3.51-3.51c0-1.93,1.58-3.51,3.51-3.51
				h140.14C308,321.07,309.58,322.65,309.58,324.58z"/>
			<path class="st9" d="M306.07,321.07c1.93,0,3.51,1.58,3.51,3.51c0,1.95-1.58,3.51-3.51,3.51H165.93c-1.93,0-3.51-1.56-3.51-3.51
				c0-1.93,1.58-3.51,3.51-3.51H306.07 M306.07,320.32H165.93c-2.35,0-4.27,1.91-4.27,4.27s1.91,4.27,4.27,4.27h140.14
				c2.35,0,4.27-1.91,4.27-4.27S308.42,320.32,306.07,320.32L306.07,320.32z"/>
		</g>
		<g>
			<g>
				<linearGradient id="SVGID_2_" gradientUnits="userSpaceOnUse" x1="210.9099" y1="277.238" x2="261.0882" y2="277.238">
					<stop  offset="0" style="stop-color:#EDEDED"/>
					<stop  offset="0.4419" style="stop-color:#E4E4E4"/>
					<stop  offset="1" style="stop-color:#D1D1D2"/>
				</linearGradient>
				<rect x="210.91" y="255.95" class="st13" width="50.18" height="42.57"/>
				<path class="st9" d="M261.09,255.95v42.57h-50.18v-42.57H261.09 M261.84,255.2h-0.76h-50.18h-0.76v0.76v42.57v0.76h0.76h50.18
					h0.76v-0.76v-42.57V255.2L261.84,255.2z"/>
			</g>
			<rect x="239.64" y="255.95" class="st14" width="21.45" height="42.57"/>
		</g>
		<g>
			<path class="st11" d="M263.29,301.41c0,1.6-1.28,2.9-2.88,2.9h-48.82c-1.6,0-2.9-1.3-2.9-2.9c0-1.6,1.3-2.9,2.9-2.9h48.82
				C262.01,298.52,263.29,299.82,263.29,301.41z"/>
			<path class="st9" d="M260.41,298.52c1.6,0,2.88,1.3,2.88,2.9c0,1.6-1.28,2.9-2.88,2.9h-48.82c-1.6,0-2.9-1.3-2.9-2.9
				c0-1.6,1.3-2.9,2.9-2.9H260.41 M260.41,297.76h-48.82c-2.01,0-3.65,1.64-3.65,3.65c0,2.01,1.64,3.65,3.65,3.65h48.82
				c2,0,3.63-1.64,3.63-3.65C264.04,299.4,262.41,297.76,260.41,297.76L260.41,297.76z"/>
		</g>
		<circle class="st15" cx="236" cy="401.25" r="21.61"/>
		<circle class="st16" cx="236" cy="401.25" r="17.29"/>
		<circle class="st17" cx="236" cy="401.25" r="11.37"/>
	</g>
	<g>
		<g>
			<linearGradient id="SVGID_3_" gradientUnits="userSpaceOnUse" x1="371.7794" y1="894.7495" x2="424.8176" y2="894.7495">
				<stop  offset="0" style="stop-color:#72716F"/>
				<stop  offset="0.1282" style="stop-color:#696866"/>
				<stop  offset="0.3407" style="stop-color:#4F4E4C"/>
				<stop  offset="0.5" style="stop-color:#383735"/>
				<stop  offset="0.9944" style="stop-color:#918D8A"/>
			</linearGradient>
			<rect x="371.78" y="805.05" class="st18" width="53.04" height="179.39"/>
			<path class="st2" d="M424.82,805.05v179.39h-53.04V805.05H424.82 M425.57,804.3h-0.76h-53.04h-0.76v0.76v179.39v0.76h0.76h53.04
				h0.76v-0.76V805.05V804.3L425.57,804.3z"/>
		</g>
		<g>
			<linearGradient id="SVGID_4_" gradientUnits="userSpaceOnUse" x1="371.7794" y1="879.54" x2="424.8176" y2="879.54">
				<stop  offset="0" style="stop-color:#72716F"/>
				<stop  offset="0.1282" style="stop-color:#696866"/>
				<stop  offset="0.3407" style="stop-color:#4F4E4C"/>
				<stop  offset="0.5" style="stop-color:#383735"/>
				<stop  offset="0.9944" style="stop-color:#918D8A"/>
			</linearGradient>
			<rect x="371.78" y="805.05" class="st19" width="53.04" height="148.97"/>
			<path class="st2" d="M424.82,805.05v148.97h-53.04V805.05H424.82 M425.57,804.3h-0.76h-53.04h-0.76v0.76v148.97v0.76h0.76h53.04
				h0.76v-0.76V805.05V804.3L425.57,804.3z"/>
		</g>
		<g>
			<linearGradient id="SVGID_5_" gradientUnits="userSpaceOnUse" x1="371.7794" y1="991.9537" x2="424.8176" y2="991.9537">
				<stop  offset="0" style="stop-color:#72716F"/>
				<stop  offset="0.1282" style="stop-color:#696866"/>
				<stop  offset="0.3407" style="stop-color:#4F4E4C"/>
				<stop  offset="0.5" style="stop-color:#383735"/>
				<stop  offset="0.9944" style="stop-color:#918D8A"/>
			</linearGradient>
			<path class="st20" d="M424.82,984.45h-53.04v7.4c0,4.21,3.41,7.62,7.62,7.62h37.81c4.21,0,7.62-3.41,7.62-7.62V984.45z"/>
			<path class="st2" d="M424.82,984.45v7.4c0,4.21-3.41,7.62-7.62,7.62h-37.81c-4.21,0-7.62-3.41-7.62-7.62v-7.4H424.82
				 M425.57,983.7h-0.75h-53.04h-0.75v0.75v7.4c0,4.61,3.75,8.37,8.37,8.37h37.81c4.61,0,8.37-3.75,8.37-8.37v-7.4V983.7
				L425.57,983.7z"/>
		</g>
		<g>
			<linearGradient id="SVGID_6_" gradientUnits="userSpaceOnUse" x1="371.7794" y1="798.6665" x2="424.8176" y2="798.6665">
				<stop  offset="0" style="stop-color:#72716F"/>
				<stop  offset="0.1282" style="stop-color:#696866"/>
				<stop  offset="0.3407" style="stop-color:#4F4E4C"/>
				<stop  offset="0.5" style="stop-color:#383735"/>
				<stop  offset="0.9944" style="stop-color:#918D8A"/>
			</linearGradient>
			<path class="st21" d="M424.82,805.05h-53.04v-6.29c0-3.58,2.9-6.48,6.48-6.48h40.08c3.58,0,6.48,2.9,6.48,6.48V805.05z"/>
			<path class="st2" d="M418.34,792.28c3.58,0,6.48,2.9,6.48,6.48v6.29h-53.04v-6.29c0-3.58,2.9-6.48,6.48-6.48H418.34
				 M418.34,791.53h-40.08c-3.99,0-7.23,3.24-7.23,7.23v6.29v0.75h0.75h53.04h0.75v-0.75v-6.29
				C425.57,794.77,422.33,791.53,418.34,791.53L418.34,791.53z"/>
		</g>
	</g>
	<g>
		<circle class="st22" cx="393.33" cy="975.51" r="4.97"/>
		<circle class="st23" cx="393.33" cy="975.51" r="2.14"/>
	</g>
	<g>
		<rect x="8.77" y="7.72" class="st24" width="467.33" height="248.23"/>
		<g>
			<path class="st25" d="M479.1,190.83v63.92c0,2.17-1.77,3.94-3.94,3.94h-45.33v-26.2h46.27v-41.66H479.1z"/>
			<path class="st25" d="M55.3,5v2.72H8.77v63.76h-3V8.95C5.78,6.78,7.55,5,9.72,5H55.3z"/>
			<path class="st25" d="M479.1,8.95v62.54h-3V7.72h-46.27V5h45.33C477.33,5,479.1,6.78,479.1,8.95z"/>
			<path class="st25" d="M55.3,232.49v26.2H9.72c-2.17,0-3.94-1.77-3.94-3.94v-63.92h3v41.66H55.3z"/>
		</g>
		<rect x="8.77" y="7.72" class="st26" width="467.33" height="224.76"/>
		<rect x="24.69" y="17.54" class="st27" width="435.49" height="202.92"/>
		<g>
			<g>
				<rect x="30.41" y="25.37" class="st28" width="102.7" height="29.54"/>
				<rect x="30.41" y="25.37" class="st28" width="102.7" height="29.54"/>
				<rect x="30.41" y="25.37" class="st28" width="102.7" height="29.54"/>
				<rect x="30.41" y="25.37" class="st28" width="102.7" height="29.54"/>
				<rect x="136.92" y="25.37" class="st28" width="102.7" height="29.54"/>
				<rect x="243.43" y="25.37" class="st28" width="102.7" height="29.54"/>
				<rect x="349.94" y="25.37" class="st28" width="102.7" height="29.54"/>
			</g>
			<g>
				<rect x="30.41" y="57.13" class="st28" width="102.7" height="29.54"/>
				<rect x="30.41" y="57.13" class="st28" width="102.7" height="29.54"/>
				<rect x="30.41" y="57.13" class="st28" width="102.7" height="29.54"/>
				<rect x="30.41" y="57.13" class="st28" width="102.7" height="29.54"/>
				<rect x="136.92" y="57.13" class="st28" width="102.7" height="29.54"/>
				<rect x="243.43" y="57.13" class="st28" width="102.7" height="29.54"/>
				<rect x="349.94" y="57.13" class="st28" width="102.7" height="29.54"/>
			</g>
			<g>
				<rect x="30.41" y="88.9" class="st28" width="102.7" height="29.54"/>
				<rect x="30.41" y="88.9" class="st28" width="102.7" height="29.54"/>
				<rect x="30.41" y="88.9" class="st28" width="102.7" height="29.54"/>
				<rect x="30.41" y="88.9" class="st28" width="102.7" height="29.54"/>
				<rect x="136.92" y="88.9" class="st28" width="102.7" height="29.54"/>
				<rect x="243.43" y="88.9" class="st28" width="102.7" height="29.54"/>
				<rect x="349.94" y="88.9" class="st28" width="102.7" height="29.54"/>
			</g>
			<g>
				<rect x="30.41" y="120.66" class="st28" width="102.7" height="29.54"/>
				<rect x="30.41" y="120.66" class="st28" width="102.7" height="29.54"/>
				<rect x="30.41" y="120.66" class="st28" width="102.7" height="29.54"/>
				<rect x="30.41" y="120.66" class="st28" width="102.7" height="29.54"/>
				<rect x="136.92" y="120.66" class="st28" width="102.7" height="29.54"/>
				<rect x="243.43" y="120.66" class="st28" width="102.7" height="29.54"/>
				<rect x="349.94" y="120.66" class="st28" width="102.7" height="29.54"/>
			</g>
			<g>
				<rect x="30.41" y="152.42" class="st28" width="102.7" height="29.54"/>
				<rect x="30.41" y="152.42" class="st28" width="102.7" height="29.54"/>
				<rect x="30.41" y="152.42" class="st28" width="102.7" height="29.54"/>
				<rect x="30.41" y="152.42" class="st28" width="102.7" height="29.54"/>
				<rect x="136.92" y="152.42" class="st28" width="102.7" height="29.54"/>
				<rect x="243.43" y="152.42" class="st28" width="102.7" height="29.54"/>
				<rect x="349.94" y="152.42" class="st28" width="102.7" height="29.54"/>
			</g>
			<g>
				<rect x="30.41" y="184.19" class="st28" width="102.7" height="29.54"/>
				<rect x="30.41" y="184.19" class="st28" width="102.7" height="29.54"/>
				<rect x="30.41" y="184.19" class="st28" width="102.7" height="29.54"/>
				<rect x="30.41" y="184.19" class="st28" width="102.7" height="29.54"/>
				<rect x="136.92" y="184.19" class="st28" width="102.7" height="29.54"/>
				<rect x="243.43" y="184.19" class="st28" width="102.7" height="29.54"/>
				<rect x="349.94" y="184.19" class="st28" width="102.7" height="29.54"/>
			</g>
		</g>
	</g>
</g>
</svg>
